<svg viewBox="0 0 400 240" xmlns="http://www.w3.org/2000/svg">
  <defs>
    <linearGradient id="bg-ecommerce" x1="0" y1="0" x2="1" y2="1">
      <stop offset="0%" stop-color="#EFF6FF"/>
      <stop offset="100%" stop-color="#DBEAFE"/>
    </linearGradient>
  </defs>
  <rect width="400" height="240" fill="url(#bg-ecommerce)"/>
  <circle cx="330" cy="40" r="70" fill="#BFDBFE" opacity="0.5"/>
  <circle cx="40" cy="210" r="50" fill="#93C5FD" opacity="0.35"/>

  <g stroke="#1D4ED8" stroke-width="2.5" fill="none" stroke-linecap="round" stroke-linejoin="round">
    <rect x="150" y="95" width="100" height="85" rx="10" fill="#FFFFFF"/>
    <path d="M172 95 v-15 a28 28 0 0 1 56 0 v15"/>
    <circle cx="172" cy="112" r="4" fill="#1D4ED8" stroke="none"/>
    <circle cx="228" cy="112" r="4" fill="#1D4ED8" stroke="none"/>
  </g>

  <g fill="#2563EB">
    <rect x="90" y="140" width="30" height="22" rx="4" opacity="0.85"/>
    <rect x="280" y="150" width="26" height="26" rx="4" opacity="0.6"/>
    <rect x="270" y="60" width="20" height="20" rx="4" opacity="0.5"/>
  </g>

  <g stroke="#1E40AF" stroke-width="2" fill="none" stroke-linecap="round">
    <path d="M295 150 h14 l4 12 h-18z" fill="#FFFFFF" stroke="#1D4ED8"/>
    <path d="M299 150 l3 -8 h4 l3 8"/>
  </g>
</svg>
