<svg viewBox="0 0 400 240" xmlns="http://www.w3.org/2000/svg">
  <defs>
    <linearGradient id="bg-edtech" x1="0" y1="0" x2="1" y2="1">
      <stop offset="0%" stop-color="#0F172A"/>
      <stop offset="100%" stop-color="#1E3A8A"/>
    </linearGradient>
  </defs>
  <rect width="400" height="240" fill="url(#bg-edtech)"/>

  <g stroke="#3B82F6" stroke-width="1" opacity="0.5">
    <circle cx="70" cy="60" r="3" fill="#60A5FA" stroke="none"/>
    <circle cx="120" cy="40" r="2" fill="#60A5FA" stroke="none"/>
    <circle cx="330" cy="190" r="3" fill="#60A5FA" stroke="none"/>
    <line x1="70" y1="60" x2="120" y2="40"/>
  </g>

  <g transform="translate(120,80)" stroke="#93C5FD" stroke-width="2.5" fill="none" stroke-linecap="round" stroke-linejoin="round">
    <path d="M0 20 L45 0 L90 20 L45 40 Z" fill="#1E3A8A" stroke="#60A5FA"/>
    <path d="M20 28 v20 c0 8 12 14 25 14 s25 -6 25 -14 v-20"/>
    <path d="M90 20 v22" stroke="#93C5FD"/>
  </g>

  <g stroke="#38BDF8" stroke-width="3" fill="none" stroke-linecap="round" stroke-linejoin="round">
    <path d="M230 175 L265 140 L295 160 L340 105" stroke-dasharray="6 6"/>
    <path d="M320 105 h20 v20" />
  </g>
  <g fill="#38BDF8">
    <circle cx="230" cy="175" r="4"/>
    <circle cx="265" cy="140" r="4"/>
    <circle cx="295" cy="160" r="4"/>
    <circle cx="340" cy="105" r="4"/>
  </g>
</svg>
